<?xml version="1.0" standalone="no"?><!DOCTYPE svg PUBLIC "-//W3C//DTD SVG 1.1//EN" "http://www.w3.org/Graphics/SVG/1.1/DTD/svg11.dtd"><svg t="1604652447885" class="icon" viewBox="0 0 1024 1024" version="1.1" xmlns="http://www.w3.org/2000/svg" p-id="3080" xmlns:xlink="http://www.w3.org/1999/xlink" width="200" height="200"><defs><style type="text/css"></style></defs><path d="M878.770803 997.184778c-0.084178 2.405078 0-0.180381 0.120254-0.444939-1.503174 2.537357 1.202539-1.467097 0.120253 0.120254-0.216457 0.324685-1.058234 2.104443-0.288609 0.733548s-0.228482 0.228482-0.565193 0.565194-1.875961 1.40697-0.62532 0.613295c1.551275-0.986082-1.286717 0.637346-1.286717 0.637345 0.432914-0.252533 2.224697-0.661396 0 0-0.288609 0.084178-3.078499 0.853803-1.515199 0.493041 1.202539-0.264559-1.202539 0-1.936087 0.072152s-1.53925 0-2.29685 0H150.862002c-0.950006 0-3.186728-0.589244-1.202538 0l-2.044317-0.541142c-2.621535-0.661396 1.202539 0.769625-0.853802-0.444939-1.863935-1.082285-0.372787-0.132279 0 0.204431-0.493041-0.408863-0.91393-0.877853-1.394945-1.298742l-0.62532-0.697472q1.202539 1.635453 0.541142 0.541142c-0.565193-0.132279-0.649371-2.296849-0.372787-0.62532 0.348736 2.092418-0.444939-1.779758 0.120254 0.396838 0.168355 0.661396 0 1.370894 0-0.240508v-0.541143-688.730084-3.679769-0.865827-0.204432c-0.084178-2.272798-0.384812 1.202539 0 0s-1.779758 1.791783 0-0.084178c0.336711-0.360762 1.40697-1.803808-0.31266 0.144305 0.420889-0.46899 0.877853-0.901904 1.298742-1.370894 0.62532-0.685447 1.491148-0.661396-0.15633 0.084177a14.141857 14.141857 0 0 0 1.71963-0.998107c-1.563301 1.058234-0.841777 0.264559 0 0s1.394945-0.324685 2.044316-0.541142c-2.056341 0.709498 0.264559 0 1.202539 0H872.986591c0.577219 0 1.202539 0.060127 1.71963 0.072152 1.743681 0-1.527224-0.62532 0 0.072152 0.769625 0.348736 1.707605 0.444939 2.501281 0.769625-0.46899-0.180381-2.032291-0.974056-0.132279 0.096203s-0.432914-0.817726 0.336711 0.120254a9.692463 9.692463 0 0 0 1.346843 1.334818c1.491148 1.202539-2.020265-1.948113 0 0.204432 0.481016 0.505066 0.589244 2.104443-0.144304-0.360762 0.252533 0.865828 0.060127 1.803808 0.072152-0.493041v694.887083c0 6.289278 5.531679 12.313998 12.025389 12.025389a12.22982 12.22982 0 0 0 12.025388-12.025389V305.255941c0-13.30008-8.417772-24.664072-21.645699-27.82675-8.237391-1.960138-17.653271-0.998107-26.046992-0.998107H152.184795c-15.729208 0-30.48436 10.017149-31.061579 26.804592-0.060127 1.875961 0 3.775972 0 5.663958v686.469311c0 15.416548 11.303865 26.612185 26.455855 28.355866a68.797248 68.797248 0 0 0 7.912706 0.252533h716.232148c15.77731 0 30.472335-9.993098 31.097655-26.792566 0.240508-6.289278-5.700034-12.313998-12.025389-12.025388a12.277922 12.277922 0 0 0-12.025388 12.025388z" fill="#2CA6E0" p-id="3081"></path><path d="M285.810914 361.775267v-109.779773a33.863494 33.863494 0 0 0 0-4.35319v-0.324686c0-0.108228 0.637346-4.497495-0.132279 1.010133-0.348736 2.525332 0.252533-1.479123 0.360761-2.176595q1.046209-6.734218 2.260773-13.444385a626.522749 626.522749 0 0 1 28.860933-104.88544q4.665851-12.686785 9.812717-25.181164l1.202539-2.994321c0.276584-0.649371 1.202539-2.982296 0.456965-1.118361q1.370894-3.23483 2.765839-6.457634 2.693687-6.193075 5.495603-12.350074 11.327916-24.844453 24.30331-48.895231 3.198753-5.952567 6.49371-11.857033H346.923939c2.982296 5.002562 6.18105 9.860819 8.730432 15.103888l20.767846-12.133617c-1.623427-2.212672-3.210779-4.461419-4.653825-6.794344-0.721523-1.202539-1.40697-2.405078-2.032291-3.607617q-0.46899-0.91393-0.889879-1.85191 0.805701 1.948113 0.060127 0l-21.98241 9.295626c10.82285 18.735556 21.020379 37.783771 30.183725 57.373129q3.319007 7.094979 6.445609 14.286162 0.889879 2.056341 1.767732 4.112683c-0.925955-2.200646 0.553168 1.346844 0.721523 1.767732q1.599377 3.872175 3.126601 7.780426 5.880415 15.043761 10.630444 30.496386a12.3621 12.3621 0 0 0 11.592474 8.826635q68.352309 1.815834 136.740695 1.202539 17.31656-0.168355 34.633119-0.493041 8.417772-0.15633 16.763392-0.348736c6.421558-0.144305 14.731101 0.925955 20.515313-2.14052 6.084847-3.222804 7.804477-11.44817 9.620311-17.557067 1.467097-4.882308 2.741789-9.812717 4.365216-14.646923 0.396838-1.202539 0.829752-2.405078 1.274691-3.607617 0.216457-0.565193 1.082285-1.924062 0 0 0.252533-0.444939 0.444939-0.91393 0.685447-1.358869 1.202539-2.272798 2.609509-4.425343 3.968379-6.589913 3.198753-5.074714 5.026612-10.97918 7.215233-16.570985 1.058234-2.753814 2.128494-5.507628 3.234829-8.237392l0.62532-1.539249c0.108228-0.252533 1.202539-2.958246 0.673422-1.623428s0.216457-0.481016 0.264559-0.589244l1.118361-2.525332c2.489255-5.495603 5.435476-10.714621 8.417772-15.981741 6.084847-10.943104 11.784881-22.090639 18.038083-32.949565h-20.839999c3.018373 5.038638 6.361431 9.872844 8.742458 15.260218l18.891886-14.574771c1.948113 2.513306-0.613295-0.93798-0.937981-1.40697-0.769625-1.130387-1.515199-2.272798-2.212671-3.439261s-1.298742-2.405078-1.948113-3.607617-0.565193-1.202539 0 0.204432q-0.324685-0.853803-0.589244-1.731656l-21.982411 9.271574c0.372787 0.649371 1.875961 4.124708 0.7576 1.07026l21.98241-9.271575a9.079168 9.079168 0 0 1-0.962031-1.479123q0.853803 2.272798 0.204432 0.408864l-21.982411 9.271574c8.201315 16.041868 17.412763 31.542594 25.590027 47.596489 2.032291 3.992429 4.004454 8.020934 5.86839 12.085515q0.673422 1.467097 1.322793 2.934195l0.649371 1.479123c0 0.132279 0.769625 1.767732 0.240507 0.541142s0.168355 0.408863 0.228483 0.541143l0.613295 1.491148q0.697473 1.743681 1.370894 3.487363c1.599377 4.184835 2.898119 8.417772 4.32914 12.69881 1.659504 4.894333 4.473445 9.512082 6.553837 14.262111 0 0.108228 0.757599 1.779758 0.252533 0.577219s0.192406 0.46899 0.240508 0.589244c0.408863 1.022158 0.817726 2.032291 1.202539 3.054448q1.298742 3.319007 2.525331 6.674091c1.563301 4.293064 3.042423 8.610178 4.509521 12.939318 2.970271 8.81461 6.012694 17.593144 8.718407 26.455855a526.255058 526.255058 0 0 1 13.732993 56.290845q1.310767 7.058903 2.405078 14.153882 0.529117 3.39116 1.010133 6.794345l0.240508 1.695579c0-0.216457-0.228482-1.791783 0-0.372787 0.072152 0.565193 0.192406 1.202539 0.216457 1.707606v77.142868c0 12.722861-0.288609 25.481799 0 38.192634v0.62532c0 6.289278 5.531679 12.313998 12.025388 12.025389a12.22982 12.22982 0 0 0 12.025389-12.025389v-110.441169a139.722991 139.722991 0 0 0-2.272799-21.6457c-5.916491-37.940101-16.498833-74.930197-29.762836-110.922184-1.815834-4.918384-3.775972-9.776641-5.844339-14.598822q-1.298742-3.018373-2.693687-6.012695-0.697473-1.491148-1.431022-2.958245c-0.240508-0.493041-0.481016-0.986082-0.745574-1.467098-0.793676-1.431021 0.264559 1.467097 0-0.132279-0.757599-4.401292-2.982296-9.019041-4.605724-13.227927q-2.825966-7.215233-6.012694-14.226035c-7.539919-16.546935-16.739341-32.240067-25.385595-48.221809q-3.210779-5.940542-6.301304-11.953236c-2.717738-5.327247-9.812717-7.11903-15.01971-4.918384s-8.886762 8.417772-6.9627 14.189959a25.133062 25.133062 0 0 0 3.174702 6.818395c3.607617 4.894333 9.139295 7.395614 15.019711 4.918384 5.122816-2.16457 9.043092-8.538026 6.9627-14.189959a45.32369 45.32369 0 0 0-3.174703-6.818395A12.025389 12.025389 0 0 0 664.466352 0.953481c-5.291171 2.236722-8.802584 8.417772-6.9627 14.189959 2.489255 7.756376 6.914598 14.201984 11.832982 20.57544 3.607617 4.713952 11.568424 4.208886 15.789335 0.93798 5.074714-3.920277 5.55573-9.932971 3.102551-15.512751-2.405078-5.387374-5.724085-10.22158-8.742458-15.260219-4.593698-7.684223-16.222249-7.912706-20.767846 0-5.796237 10.077276-11.063358 20.310881-16.619087 30.46031a283.41436 283.41436 0 0 0-15.284269 31.57867c-1.984189 4.978511-3.872175 10.005123-5.832314 14.99566l-0.817726 2.080392q0.589244-1.791783-0.360762 0a30.917274 30.917274 0 0 0-2.248748 3.607617 54.823747 54.823747 0 0 0-3.403185 6.229151 123.861503 123.861503 0 0 0-6.012694 17.268458c-0.697473 2.405078-1.394945 4.906359-2.152544 7.335487-0.432914 1.38292-0.877853 2.765839-1.358869 4.124709q-0.360762 1.022158-0.745574 2.03229-0.91393 2.3209 0.252533-0.62532l4.317114-4.317114c2.958246-2.092418 5.014587-0.950006 2.405078-1.010133-0.793676 0-1.599377 0-2.405078 0.060127l-4.810155 0.120254-10.185504 0.228482q-9.872844 0.216457-19.733663 0.372787-19.697587 0.324685-39.395173 0.432914-39.359097 0.228482-78.718194-0.360761-22.150766-0.336711-44.289507-0.925955l11.592475 8.826635c-13.059572-42.702155-33.081844-82.975182-55.316788-121.564654a12.025389 12.025389 0 0 0-15.01971-4.918384c-5.11079 2.152545-9.043092 8.538026-6.9627 14.189959a73.030185 73.030185 0 0 0 9.944996 17.977956c3.70382 5.062689 10.606393 8.081061 16.450732 4.317114s7.215233-10.389936 4.317114-16.450731c-2.549382-5.243069-5.748136-10.101326-8.730432-15.103889-4.533572-7.612071-16.318452-7.984858-20.767846 0a827.262561 827.262561 0 0 0-47.836996 100.941113 642.155754 642.155754 0 0 0-31.266011 104.620881q-2.801916 13.600715-4.942434 27.321683a59.369344 59.369344 0 0 0-1.082285 9.115245v72.825753c0 13.131724-0.276584 26.299525 0 39.443275v0.637346c0 6.289278 5.531679 12.313998 12.025388 12.025388a12.22982 12.22982 0 0 0 12.025389-12.025388zM644.239648 581.7076a70.288397 70.288397 0 1 1-125.064042 36.3287l-2.982296 5.194967 1.262665-0.649371-9.043092-5.194967a70.25232 70.25232 0 0 1-57.517434 76.445395c-34.741348 6.49371-69.927635-15.452624-79.872631-49.219916a70.793463 70.793463 0 0 1 12.241845-63.566204c2.020265-2.537357 2.47723-6.012694 0-8.50195-2.092418-2.092418-6.469659-2.549382-8.501949 0a83.648603 83.648603 0 0 0-17.232382 66.945339 82.385938 82.385938 0 0 0 86.823306 67.209897 82.229608 82.229608 0 0 0 76.060583-89.336612c-0.408863-4.617749-4.810155-7.383589-9.043092-5.194968-2.982296 1.527224-4.040531 3.499388-4.341166 6.866497a72.537144 72.537144 0 0 0-0.192406 9.620311 85.199879 85.199879 0 0 0 2.200646 15.885538 80.726434 80.726434 0 0 0 12.301973 27.490039 82.30176 82.30176 0 0 0 146.613538-23.172924c7.852579-26.191296 1.683554-54.414884-15.212116-75.65172-2.020265-2.537357-6.385481-2.116468-8.50195 0-2.513306 2.513306-2.032291 6.012694 0 8.501949z" fill="#2CA6E0" p-id="3082"></path></svg>